<svg width="26" height="26" viewBox="0 0 26 26" fill="none" xmlns="http://www.w3.org/2000/svg">
<path d="M6.85704 1.875C6.85704 1.46016 6.474 1.125 5.9999 1.125C5.52579 1.125 5.14275 1.46016 5.14275 1.875V5.25H1.28561C0.811502 5.25 0.428467 5.58516 0.428467 6C0.428467 6.41484 0.811502 6.75 1.28561 6.75H5.14275V10.125C5.14275 10.5398 5.52579 10.875 5.9999 10.875C6.474 10.875 6.85704 10.5398 6.85704 10.125V6.75H10.7142C11.1883 6.75 11.5713 6.41484 11.5713 6C11.5713 5.58516 11.1883 5.25 10.7142 5.25H6.85704V1.875Z" fill="#916FFE"/>
<path d="M13.2418 9.82378L12.8762 10.9207H10.25C9.00898 10.9207 8 11.9296 8 13.1707V22.1707C8 23.4117 9.00898 24.4207 10.25 24.4207H23.75C24.991 24.4207 26 23.4117 26 22.1707V13.1707C26 11.9296 24.991 10.9207 23.75 10.9207H21.1238L20.7582 9.82378C20.5297 9.13472 19.8863 8.67065 19.1586 8.67065H14.8414C14.1137 8.67065 13.4703 9.13472 13.2418 9.82378ZM17 14.2957C17.8951 14.2957 18.7536 14.6512 19.3865 15.2842C20.0194 15.9171 20.375 16.7755 20.375 17.6707C20.375 18.5658 20.0194 19.4242 19.3865 20.0571C18.7536 20.6901 17.8951 21.0457 17 21.0457C16.1049 21.0457 15.2464 20.6901 14.6135 20.0571C13.9806 19.4242 13.625 18.5658 13.625 17.6707C13.625 16.7755 13.9806 15.9171 14.6135 15.2842C15.2464 14.6512 16.1049 14.2957 17 14.2957Z" fill="#916FFE"/>
</svg>
